<svg width="239" height="72" viewBox="0 0 239 72" fill="none" xmlns="http://www.w3.org/2000/svg">
<g filter="url(#filter0_d_5_84)">
<mask id="mask0_5_84" style="mask-type:alpha" maskUnits="userSpaceOnUse" x="20" y="22" width="25" height="28">
<path d="M30.7897 22.4817L26.8774 24.8104C25.6665 25.5556 22.9465 27.2323 21.7542 27.9775C20.5619 28.7227 20.2017 29.53 20.1707 29.8405V41.6704C20.1707 42.8627 20.7296 43.4713 21.009 43.6266C23.7724 45.3032 29.5974 48.8429 30.7897 49.5881C31.982 50.3333 33.1495 49.8986 33.5842 49.5881C36.2234 48.0046 41.7627 44.6698 42.8059 43.9992C43.8492 43.3285 44.11 42.3535 44.11 41.9499V29.8405C44.11 29.0208 43.4269 28.4432 43.0854 28.2569C40.3841 26.6423 34.7019 23.2269 33.5842 22.4817C32.4664 21.7365 31.2554 22.1712 30.7897 22.4817Z" fill="#11B2E4"/>
</mask>
<g mask="url(#mask0_5_84)">
<path d="M30.7897 22.4817L26.8774 24.8104C25.6665 25.5556 22.9465 27.2323 21.7542 27.9775C20.5619 28.7227 20.2017 29.53 20.1707 29.8405V41.6704C20.1707 42.8627 20.7296 43.4713 21.009 43.6266C23.7724 45.3032 29.5974 48.8429 30.7897 49.5881C31.982 50.3333 33.1495 49.8986 33.5842 49.5881C36.2234 48.0046 41.7627 44.6698 42.8059 43.9992C43.8492 43.3285 44.11 42.3535 44.11 41.9499V29.8405C44.11 29.0208 43.4269 28.4432 43.0854 28.2569C40.3841 26.6423 34.7019 23.2269 33.5842 22.4817C32.4664 21.7365 31.2554 22.1712 30.7897 22.4817Z" fill="#18C55E"/>
<path d="M31.9723 36.0099L20.8448 42.6261C20.5328 42.8116 20.5204 43.2585 20.8233 43.4586C23.8386 45.451 29.0795 48.8868 30.2168 49.5259C31.4415 50.214 32.5768 50.0037 32.9914 49.8126L43.3987 43.4496C43.7138 43.257 43.7126 42.7989 43.3965 42.6079L32.4786 36.0116C32.3231 35.9177 32.1285 35.917 31.9723 36.0099Z" fill="#1EAF58"/>
<path d="M44.1981 28.7173L31.9846 35.9753C31.9391 36.0023 31.9387 36.0681 31.9839 36.0958L44.1937 43.5598C44.2276 43.5805 44.2719 43.5691 44.2915 43.5347L44.6437 42.9178C44.6498 42.9072 44.653 42.8952 44.653 42.883V29.3011C44.653 29.2872 44.6489 29.2736 44.6412 29.2621L44.2926 28.7388C44.2719 28.7077 44.2303 28.6982 44.1981 28.7173Z" fill="#119F4A"/>
</g>
<path d="M56.1906 22L49.4287 18.1905L49.3335 46L32.0954 55.9048L20.3811 49.2381V57.1429L32.0954 64L56.1906 49.9048V22Z" fill="url(#paint0_linear_5_84)"/>
<path d="M43.8095 14.8571V22.5714L32 16.1905L14.8571 26.0952V53.9048L8 50V22L32 8L43.8095 14.8571Z" fill="url(#paint1_linear_5_84)"/>
</g>
<path d="M79.0798 21.7853V35.2113C79.0798 35.4151 78.9779 35.5169 78.7742 35.5169H77.7918C77.588 35.5169 77.4861 35.4151 77.4861 35.2113V21.7853C77.4861 21.5816 77.588 21.4797 77.7918 21.4797H78.7742C78.9779 21.4797 79.0798 21.5816 79.0798 21.7853ZM83.909 35.5169H82.9485C82.7447 35.5169 82.6428 35.4151 82.6428 35.2113V21.7853C82.6428 21.5816 82.7447 21.4797 82.9485 21.4797H83.8435C84.0182 21.4797 84.1346 21.5379 84.1928 21.6543L90.2181 32.2423H90.3055V21.7853C90.3055 21.5816 90.4073 21.4797 90.6111 21.4797H91.5717C91.7754 21.4797 91.8773 21.5816 91.8773 21.7853V35.2113C91.8773 35.4151 91.7754 35.5169 91.5717 35.5169H90.7639C90.6038 35.5169 90.451 35.4223 90.3055 35.2331L84.302 24.7543H84.2147V35.2113C84.2147 35.4151 84.1128 35.5169 83.909 35.5169ZM96.6158 35.5169H95.6334C95.4296 35.5169 95.3278 35.4151 95.3278 35.2113V21.7853C95.3278 21.5816 95.4296 21.4797 95.6334 21.4797H102.423C102.627 21.4797 102.728 21.5816 102.728 21.7853V22.5712C102.728 22.775 102.627 22.8769 102.423 22.8769H97.1397C96.9942 22.8769 96.9214 22.9424 96.9214 23.0733V27.8325C96.9214 27.9635 96.9942 28.0289 97.1397 28.0289H101.812C102.015 28.0289 102.117 28.1308 102.117 28.3346V29.1205C102.117 29.3242 102.015 29.4261 101.812 29.4261H97.1397C96.9942 29.4261 96.9214 29.4989 96.9214 29.6444V35.2113C96.9214 35.4151 96.8195 35.5169 96.6158 35.5169ZM107.008 21.7853V35.2113C107.008 35.4151 106.906 35.5169 106.702 35.5169H105.72C105.516 35.5169 105.414 35.4151 105.414 35.2113V21.7853C105.414 21.5816 105.516 21.4797 105.72 21.4797H106.702C106.906 21.4797 107.008 21.5816 107.008 21.7853ZM111.837 35.5169H110.877C110.673 35.5169 110.571 35.4151 110.571 35.2113V21.7853C110.571 21.5816 110.673 21.4797 110.877 21.4797H111.772C111.946 21.4797 112.063 21.5379 112.121 21.6543L118.146 32.2423H118.234V21.7853C118.234 21.5816 118.336 21.4797 118.539 21.4797H119.5C119.704 21.4797 119.805 21.5816 119.805 21.7853V35.2113C119.805 35.4151 119.704 35.5169 119.5 35.5169H118.692C118.532 35.5169 118.379 35.4223 118.234 35.2331L112.23 24.7543H112.143V35.2113C112.143 35.4151 112.041 35.5169 111.837 35.5169ZM124.959 21.7853V35.2113C124.959 35.4151 124.857 35.5169 124.653 35.5169H123.671C123.467 35.5169 123.365 35.4151 123.365 35.2113V21.7853C123.365 21.5816 123.467 21.4797 123.671 21.4797H124.653C124.857 21.4797 124.959 21.5816 124.959 21.7853ZM131.949 35.5169H130.967C130.763 35.5169 130.661 35.4151 130.661 35.2113V23.0733C130.661 22.9424 130.588 22.8769 130.443 22.8769H127.474C127.256 22.8769 127.146 22.775 127.146 22.5712V21.7853C127.146 21.5816 127.256 21.4797 127.474 21.4797H135.442C135.66 21.4797 135.77 21.5816 135.77 21.7853V22.5712C135.77 22.775 135.66 22.8769 135.442 22.8769H132.473C132.328 22.8769 132.255 22.9424 132.255 23.0733V35.2113C132.255 35.4151 132.153 35.5169 131.949 35.5169ZM144.999 35.5169H138.144C137.94 35.5169 137.838 35.4151 137.838 35.2113V21.7853C137.838 21.5816 137.94 21.4797 138.144 21.4797H144.999C145.203 21.4797 145.304 21.5816 145.304 21.7853V22.5712C145.304 22.775 145.203 22.8769 144.999 22.8769H139.65C139.505 22.8769 139.432 22.9424 139.432 23.0733V27.4832C139.432 27.6142 139.505 27.6797 139.65 27.6797H144.322C144.526 27.6797 144.628 27.7815 144.628 27.9853V28.7712C144.628 28.975 144.526 29.0768 144.322 29.0768H139.65C139.505 29.0768 139.432 29.1423 139.432 29.2733V33.9233C139.432 34.0543 139.505 34.1198 139.65 34.1198H144.999C145.203 34.1198 145.304 34.2216 145.304 34.4254V35.2113C145.304 35.4151 145.203 35.5169 144.999 35.5169ZM159.503 35.5169H156.883C155.879 35.5169 155.086 35.2331 154.503 34.6655C153.936 34.0979 153.652 33.3047 153.652 32.286V24.7107C153.652 23.6919 153.936 22.8987 154.503 22.3311C155.086 21.7635 155.879 21.4797 156.883 21.4797H159.503C160.507 21.4797 161.293 21.7635 161.86 22.3311C162.443 22.8987 162.734 23.6919 162.734 24.7107V25.7804C162.734 25.9841 162.632 26.086 162.428 26.086H161.446C161.242 26.086 161.14 25.9841 161.14 25.7804V24.7761C161.14 23.51 160.529 22.8769 159.306 22.8769H157.058C155.85 22.8769 155.246 23.51 155.246 24.7761V32.2205C155.246 33.4867 155.85 34.1198 157.058 34.1198H159.306C160.529 34.1198 161.14 33.4867 161.14 32.2205V31.2163C161.14 31.0125 161.242 30.9106 161.446 30.9106H162.428C162.632 30.9106 162.734 31.0125 162.734 31.2163V32.286C162.734 33.3047 162.443 34.0979 161.86 34.6655C161.293 35.2331 160.507 35.5169 159.503 35.5169ZM168.868 34.1198H171.095C172.318 34.1198 172.929 33.4867 172.929 32.2205V24.7761C172.929 23.51 172.318 22.8769 171.095 22.8769H168.868C167.661 22.8769 167.057 23.51 167.057 24.7761V32.2205C167.057 33.4867 167.661 34.1198 168.868 34.1198ZM171.292 35.5169H168.694C167.69 35.5169 166.896 35.2331 166.314 34.6655C165.747 34.0979 165.463 33.3047 165.463 32.286V24.7107C165.463 23.6919 165.747 22.8987 166.314 22.3311C166.896 21.7635 167.69 21.4797 168.694 21.4797H171.292C172.296 21.4797 173.082 21.7708 173.649 22.3529C174.232 22.9205 174.523 23.7064 174.523 24.7107V32.286C174.523 33.2902 174.232 34.0834 173.649 34.6655C173.082 35.2331 172.296 35.5169 171.292 35.5169ZM179.014 35.5169H178.053C177.85 35.5169 177.748 35.4151 177.748 35.2113V21.7853C177.748 21.5816 177.85 21.4797 178.053 21.4797H178.949C179.123 21.4797 179.24 21.5379 179.298 21.6543L185.323 32.2423H185.41V21.7853C185.41 21.5816 185.512 21.4797 185.716 21.4797H186.677C186.88 21.4797 186.982 21.5816 186.982 21.7853V35.2113C186.982 35.4151 186.88 35.5169 186.677 35.5169H185.869C185.709 35.5169 185.556 35.4223 185.41 35.2331L179.407 24.7543H179.32V35.2113C179.32 35.4151 179.218 35.5169 179.014 35.5169ZM193.86 35.5169H192.878C192.674 35.5169 192.572 35.4151 192.572 35.2113V23.0733C192.572 22.9424 192.499 22.8769 192.354 22.8769H189.385C189.167 22.8769 189.057 22.775 189.057 22.5712V21.7853C189.057 21.5816 189.167 21.4797 189.385 21.4797H197.353C197.571 21.4797 197.681 21.5816 197.681 21.7853V22.5712C197.681 22.775 197.571 22.8769 197.353 22.8769H194.384C194.239 22.8769 194.166 22.9424 194.166 23.0733V35.2113C194.166 35.4151 194.064 35.5169 193.86 35.5169ZM201.037 35.5169H200.055C199.851 35.5169 199.749 35.4151 199.749 35.2113V21.7853C199.749 21.5816 199.851 21.4797 200.055 21.4797H205.076C206.08 21.4797 206.873 21.7708 207.456 22.3529C208.038 22.9205 208.329 23.7064 208.329 24.7107V26.6973C208.329 27.5123 208.132 28.189 207.739 28.7275C207.346 29.2515 206.801 29.6008 206.102 29.7754V29.8627L208.634 35.1676C208.765 35.4005 208.693 35.5169 208.416 35.5169H207.434C207.186 35.5169 207.004 35.4151 206.888 35.2113L204.443 29.9282H201.561C201.416 29.9282 201.343 29.9937 201.343 30.1247V35.2113C201.343 35.4151 201.241 35.5169 201.037 35.5169ZM201.561 28.5965H204.858C206.109 28.5965 206.735 27.9707 206.735 26.7191V24.7761C206.735 23.51 206.109 22.8769 204.858 22.8769H201.561C201.416 22.8769 201.343 22.9424 201.343 23.0733V28.4001C201.343 28.5311 201.416 28.5965 201.561 28.5965ZM214.662 34.1198H216.889C218.111 34.1198 218.723 33.4867 218.723 32.2205V24.7761C218.723 23.51 218.111 22.8769 216.889 22.8769H214.662C213.454 22.8769 212.85 23.51 212.85 24.7761V32.2205C212.85 33.4867 213.454 34.1198 214.662 34.1198ZM217.085 35.5169H214.488C213.483 35.5169 212.69 35.2331 212.108 34.6655C211.54 34.0979 211.257 33.3047 211.257 32.286V24.7107C211.257 23.6919 211.54 22.8987 212.108 22.3311C212.69 21.7635 213.483 21.4797 214.488 21.4797H217.085C218.09 21.4797 218.876 21.7708 219.443 22.3529C220.025 22.9205 220.316 23.7064 220.316 24.7107V32.286C220.316 33.2902 220.025 34.0834 219.443 34.6655C218.876 35.2331 218.09 35.5169 217.085 35.5169ZM230.855 35.5169H223.847C223.643 35.5169 223.542 35.4151 223.542 35.2113V21.7853C223.542 21.5816 223.643 21.4797 223.847 21.4797H224.83C225.033 21.4797 225.135 21.5816 225.135 21.7853V33.8796C225.135 34.0106 225.208 34.0761 225.353 34.0761H230.855C231.059 34.0761 231.161 34.1853 231.161 34.4036V35.2113C231.161 35.4151 231.059 35.5169 230.855 35.5169Z" fill="white"/>
<path d="M79.0724 49.3206H77.9112C77.482 49.3206 77.1372 49.1904 76.8768 48.93C76.6235 48.6696 76.4968 48.3213 76.4968 47.885V43.9689C76.4968 43.5326 76.6235 43.1842 76.8768 42.9239C77.1372 42.6635 77.482 42.5333 77.9112 42.5333H79.0724C79.5016 42.5333 79.8429 42.6635 80.0962 42.9239C80.3566 43.1842 80.4868 43.5326 80.4868 43.9689V44.4967C80.4868 44.56 80.4587 44.5917 80.4024 44.5917H80.2546C80.1983 44.5917 80.1701 44.56 80.1701 44.4967V43.9794C80.1701 43.6205 80.0751 43.3391 79.8851 43.135C79.6951 42.9309 79.4242 42.8289 79.0724 42.8289H77.9112C77.5594 42.8289 77.2885 42.9309 77.0985 43.135C76.9085 43.3391 76.8135 43.6205 76.8135 43.9794V47.8744C76.8135 48.2333 76.9085 48.5148 77.0985 48.7189C77.2885 48.923 77.5594 49.025 77.9112 49.025H79.0724C79.4242 49.025 79.6951 48.923 79.8851 48.7189C80.0751 48.5148 80.1701 48.2333 80.1701 47.8744V46.2806C80.1701 46.2243 80.1385 46.1961 80.0751 46.1961H78.7135C78.6501 46.1961 78.6185 46.168 78.6185 46.1117V45.985C78.6185 45.9287 78.6501 45.9006 78.7135 45.9006H80.2968C80.4235 45.9006 80.4868 45.9674 80.4868 46.1011V47.885C80.4868 48.3213 80.3566 48.6696 80.0962 48.93C79.8429 49.1904 79.5016 49.3206 79.0724 49.3206ZM85.6494 49.3206H83.4855C83.0562 49.3206 82.7114 49.1904 82.4511 48.93C82.1977 48.6696 82.071 48.3213 82.071 47.885V45.3728C82.071 44.9365 82.1977 44.5881 82.4511 44.3278C82.7114 44.0674 83.0562 43.9372 83.4855 43.9372H84.4144C84.8437 43.9372 85.1849 44.0674 85.4383 44.3278C85.6987 44.5881 85.8288 44.9365 85.8288 45.3728V46.7133C85.8288 46.7837 85.7972 46.8189 85.7338 46.8189H82.4827C82.4194 46.8189 82.3877 46.847 82.3877 46.9033V47.8744C82.3877 48.2333 82.4827 48.5148 82.6727 48.7189C82.8627 48.923 83.1336 49.025 83.4855 49.025H85.6494C85.7127 49.025 85.7444 49.0532 85.7444 49.1095V49.2361C85.7444 49.2924 85.7127 49.3206 85.6494 49.3206ZM82.4827 46.5233H85.4172C85.4805 46.5233 85.5122 46.4952 85.5122 46.4389V45.3833C85.5122 45.0244 85.4172 44.743 85.2272 44.5389C85.0372 44.3348 84.7662 44.2328 84.4144 44.2328H83.4855C83.1336 44.2328 82.8627 44.3348 82.6727 44.5389C82.4827 44.743 82.3877 45.0244 82.3877 45.3833V46.4389C82.3877 46.4952 82.4194 46.5233 82.4827 46.5233ZM87.5938 49.3206H87.4461C87.3898 49.3206 87.3616 49.2889 87.3616 49.2256V44.0322C87.3616 43.9689 87.3898 43.9372 87.4461 43.9372H87.5938C87.6501 43.9372 87.6783 43.9689 87.6783 44.0322V44.5072H87.7205C87.7979 44.3665 87.9316 44.2363 88.1216 44.1167C88.3187 43.997 88.572 43.9372 88.8816 43.9372H89.3039C89.3672 43.9372 89.3989 43.9654 89.3989 44.0217V44.1483C89.3989 44.2046 89.3672 44.2328 89.3039 44.2328H88.8711C88.5122 44.2328 88.2237 44.3454 88.0055 44.5705C87.7874 44.7957 87.6783 45.1018 87.6783 45.4889V49.2256C87.6783 49.2889 87.6501 49.3206 87.5938 49.3206ZM94.03 49.3206H91.8661C91.4368 49.3206 91.092 49.1904 90.8316 48.93C90.5783 48.6696 90.4516 48.3213 90.4516 47.885V45.3728C90.4516 44.9365 90.5783 44.5881 90.8316 44.3278C91.092 44.0674 91.4368 43.9372 91.8661 43.9372H92.7949C93.2242 43.9372 93.5655 44.0674 93.8188 44.3278C94.0792 44.5881 94.2094 44.9365 94.2094 45.3728V46.7133C94.2094 46.7837 94.1777 46.8189 94.1144 46.8189H90.8633C90.7999 46.8189 90.7683 46.847 90.7683 46.9033V47.8744C90.7683 48.2333 90.8633 48.5148 91.0533 48.7189C91.2433 48.923 91.5142 49.025 91.8661 49.025H94.03C94.0933 49.025 94.125 49.0532 94.125 49.1095V49.2361C94.125 49.2924 94.0933 49.3206 94.03 49.3206ZM90.8633 46.5233H93.7977C93.8611 46.5233 93.8927 46.4952 93.8927 46.4389V45.3833C93.8927 45.0244 93.7977 44.743 93.6077 44.5389C93.4177 44.3348 93.1468 44.2328 92.7949 44.2328H91.8661C91.5142 44.2328 91.2433 44.3348 91.0533 44.5389C90.8633 44.743 90.7683 45.0244 90.7683 45.3833V46.4389C90.7683 46.4952 90.7999 46.5233 90.8633 46.5233ZM95.9744 49.3206H95.8266C95.7703 49.3206 95.7422 49.2889 95.7422 49.2256V44.0322C95.7422 43.9689 95.7703 43.9372 95.8266 43.9372H95.9744C96.0307 43.9372 96.0589 43.9689 96.0589 44.0322V44.4861H96.1011C96.2981 44.1202 96.6711 43.9372 97.22 43.9372H98.0011C98.4303 43.9372 98.7716 44.0674 99.025 44.3278C99.2853 44.5881 99.4155 44.9365 99.4155 45.3728V49.2256C99.4155 49.2889 99.3874 49.3206 99.3311 49.3206H99.1833C99.127 49.3206 99.0989 49.2889 99.0989 49.2256V45.3833C99.0989 45.0244 99.0039 44.743 98.8139 44.5389C98.6239 44.3348 98.3529 44.2328 98.0011 44.2328H97.2411C96.8892 44.2328 96.6042 44.3278 96.3861 44.5178C96.1679 44.7078 96.0589 44.9787 96.0589 45.3306V49.2256C96.0589 49.2889 96.0307 49.3206 95.9744 49.3206ZM103.954 49.1095V49.2361C103.954 49.2924 103.922 49.3206 103.859 49.3206H102.36C101.931 49.3206 101.586 49.1904 101.325 48.93C101.072 48.6696 100.945 48.3213 100.945 47.885V45.3728C100.945 44.9365 101.072 44.5881 101.325 44.3278C101.586 44.0674 101.931 43.9372 102.36 43.9372H103.859C103.922 43.9372 103.954 43.9654 103.954 44.0217V44.1483C103.954 44.2046 103.922 44.2328 103.859 44.2328H102.36C102.008 44.2328 101.737 44.3348 101.547 44.5389C101.357 44.743 101.262 45.0244 101.262 45.3833V47.8744C101.262 48.2333 101.357 48.5148 101.547 48.7189C101.737 48.923 102.008 49.025 102.36 49.025H103.859C103.922 49.025 103.954 49.0532 103.954 49.1095ZM105.217 43.0611V42.0161C105.217 41.9528 105.245 41.9211 105.301 41.9211H105.449C105.505 41.9211 105.533 41.9528 105.533 42.0161V43.0611C105.533 43.1244 105.505 43.1561 105.449 43.1561H105.301C105.245 43.1561 105.217 43.1244 105.217 43.0611ZM105.217 49.2256V44.0322C105.217 43.9689 105.245 43.9372 105.301 43.9372H105.449C105.505 43.9372 105.533 43.9689 105.533 44.0322V49.2256C105.533 49.2889 105.505 49.3206 105.449 49.3206H105.301C105.245 49.3206 105.217 49.2889 105.217 49.2256ZM109.367 49.3206H108.586C108.157 49.3206 107.812 49.1904 107.551 48.93C107.298 48.6696 107.171 48.3213 107.171 47.885V45.3728C107.171 44.9365 107.298 44.5881 107.551 44.3278C107.812 44.0674 108.157 43.9372 108.586 43.9372H110.76C110.817 43.9372 110.845 43.9689 110.845 44.0322V49.2256C110.845 49.2889 110.817 49.3206 110.76 49.3206H110.613C110.556 49.3206 110.528 49.2889 110.528 49.2256V48.7717H110.486C110.289 49.1376 109.916 49.3206 109.367 49.3206ZM110.528 47.9272V44.3172C110.528 44.2609 110.497 44.2328 110.433 44.2328H108.586C108.234 44.2328 107.963 44.3348 107.773 44.5389C107.583 44.743 107.488 45.0244 107.488 45.3833V47.8744C107.488 48.2333 107.583 48.5148 107.773 48.7189C107.963 48.923 108.234 49.025 108.586 49.025H109.346C109.698 49.025 109.983 48.93 110.201 48.74C110.419 48.55 110.528 48.2791 110.528 47.9272ZM112.766 49.3206H112.619C112.562 49.3206 112.534 49.2889 112.534 49.2256V44.0322C112.534 43.9689 112.562 43.9372 112.619 43.9372H112.766C112.823 43.9372 112.851 43.9689 112.851 44.0322V44.4861H112.893C113.09 44.1202 113.463 43.9372 114.012 43.9372H114.476C115.096 43.9372 115.521 44.187 115.754 44.6867C115.852 44.4404 116.032 44.2539 116.292 44.1272C116.559 44.0005 116.827 43.9372 117.094 43.9372H117.516C117.946 43.9372 118.287 44.0674 118.54 44.3278C118.801 44.5881 118.931 44.9365 118.931 45.3728V49.2256C118.931 49.2889 118.903 49.3206 118.846 49.3206H118.699C118.642 49.3206 118.614 49.2889 118.614 49.2256V45.3833C118.614 45.0244 118.519 44.743 118.329 44.5389C118.139 44.3348 117.868 44.2328 117.516 44.2328H117.094C116.735 44.2328 116.443 44.3383 116.218 44.5494C116 44.7535 115.891 45.0315 115.891 45.3833V49.2256C115.891 49.2889 115.863 49.3206 115.806 49.3206H115.659C115.602 49.3206 115.574 49.2889 115.574 49.2256V45.3833C115.574 45.0244 115.479 44.743 115.289 44.5389C115.099 44.3348 114.828 44.2328 114.476 44.2328H114.033C113.681 44.2328 113.396 44.3278 113.178 44.5178C112.96 44.7078 112.851 44.9787 112.851 45.3306V49.2256C112.851 49.2889 112.823 49.3206 112.766 49.3206ZM124.037 49.3206H121.873C121.444 49.3206 121.099 49.1904 120.839 48.93C120.585 48.6696 120.459 48.3213 120.459 47.885V45.3728C120.459 44.9365 120.585 44.5881 120.839 44.3278C121.099 44.0674 121.444 43.9372 121.873 43.9372H122.802C123.231 43.9372 123.573 44.0674 123.826 44.3278C124.086 44.5881 124.217 44.9365 124.217 45.3728V46.7133C124.217 46.7837 124.185 46.8189 124.122 46.8189H120.87C120.807 46.8189 120.775 46.847 120.775 46.9033V47.8744C120.775 48.2333 120.87 48.5148 121.06 48.7189C121.25 48.923 121.521 49.025 121.873 49.025H124.037C124.1 49.025 124.132 49.0532 124.132 49.1095V49.2361C124.132 49.2924 124.1 49.3206 124.037 49.3206ZM120.87 46.5233H123.805C123.868 46.5233 123.9 46.4952 123.9 46.4389V45.3833C123.9 45.0244 123.805 44.743 123.615 44.5389C123.425 44.3348 123.154 44.2328 122.802 44.2328H121.873C121.521 44.2328 121.25 44.3348 121.06 44.5389C120.87 44.743 120.775 45.0244 120.775 45.3833V46.4389C120.775 46.4952 120.807 46.5233 120.87 46.5233ZM125.982 49.3206H125.834C125.777 49.3206 125.749 49.2889 125.749 49.2256V44.0322C125.749 43.9689 125.777 43.9372 125.834 43.9372H125.982C126.038 43.9372 126.066 43.9689 126.066 44.0322V44.4861H126.108C126.305 44.1202 126.678 43.9372 127.227 43.9372H128.008C128.437 43.9372 128.779 44.0674 129.032 44.3278C129.292 44.5881 129.423 44.9365 129.423 45.3728V49.2256C129.423 49.2889 129.395 49.3206 129.338 49.3206H129.19C129.134 49.3206 129.106 49.2889 129.106 49.2256V45.3833C129.106 45.0244 129.011 44.743 128.821 44.5389C128.631 44.3348 128.36 44.2328 128.008 44.2328H127.248C126.896 44.2328 126.611 44.3278 126.393 44.5178C126.175 44.7078 126.066 44.9787 126.066 45.3306V49.2256C126.066 49.2889 126.038 49.3206 125.982 49.3206ZM131.322 44.2328H130.625C130.562 44.2328 130.53 44.2046 130.53 44.1483V44.0217C130.53 43.9654 130.562 43.9372 130.625 43.9372H131.322C131.385 43.9372 131.417 43.9091 131.417 43.8528V43.0294C131.417 42.9661 131.445 42.9344 131.501 42.9344H131.649C131.705 42.9344 131.734 42.9661 131.734 43.0294V43.8528C131.734 43.9091 131.765 43.9372 131.829 43.9372H133.19C133.254 43.9372 133.285 43.9654 133.285 44.0217V44.1483C133.285 44.2046 133.254 44.2328 133.19 44.2328H131.829C131.765 44.2328 131.734 44.2609 131.734 44.3172V47.9061C131.734 48.258 131.836 48.5324 132.04 48.7295C132.251 48.9265 132.536 49.025 132.895 49.025H133.296C133.359 49.025 133.391 49.0532 133.391 49.1095V49.2361C133.391 49.2924 133.359 49.3206 133.296 49.3206H132.895C132.458 49.3206 132.103 49.1939 131.829 48.9406C131.554 48.6872 131.417 48.3459 131.417 47.9167V44.3172C131.417 44.2609 131.385 44.2328 131.322 44.2328ZM136.913 49.3206H136.016C135.587 49.3206 135.242 49.1904 134.982 48.93C134.728 48.6696 134.602 48.3213 134.602 47.885V45.3728C134.602 44.9365 134.728 44.5881 134.982 44.3278C135.242 44.0674 135.587 43.9372 136.016 43.9372H136.913C137.343 43.9372 137.684 44.0674 137.937 44.3278C138.198 44.5881 138.328 44.9365 138.328 45.3728V47.885C138.328 48.3213 138.198 48.6696 137.937 48.93C137.684 49.1904 137.343 49.3206 136.913 49.3206ZM136.016 49.025H136.913C137.265 49.025 137.536 48.923 137.726 48.7189C137.916 48.5148 138.011 48.2333 138.011 47.8744V45.3833C138.011 45.0244 137.916 44.743 137.726 44.5389C137.536 44.3348 137.265 44.2328 136.913 44.2328H136.016C135.664 44.2328 135.393 44.3348 135.203 44.5389C135.013 44.743 134.918 45.0244 134.918 45.3833V47.8744C134.918 48.2333 135.013 48.5148 135.203 48.7189C135.393 48.923 135.664 49.025 136.016 49.025ZM143.103 50.9356H142.956C142.899 50.9356 142.871 50.9039 142.871 50.8406V44.0322C142.871 43.9689 142.899 43.9372 142.956 43.9372H143.103C143.16 43.9372 143.188 43.9689 143.188 44.0322V44.4861H143.23C143.427 44.1202 143.8 43.9372 144.349 43.9372H145.13C145.559 43.9372 145.901 44.0674 146.154 44.3278C146.414 44.5881 146.545 44.9365 146.545 45.3728V47.885C146.545 48.3213 146.414 48.6696 146.154 48.93C145.901 49.1904 145.559 49.3206 145.13 49.3206H144.349C143.8 49.3206 143.427 49.1376 143.23 48.7717H143.188V50.8406C143.188 50.9039 143.16 50.9356 143.103 50.9356ZM144.37 49.025H145.13C145.482 49.025 145.753 48.923 145.943 48.7189C146.133 48.5148 146.228 48.2333 146.228 47.8744V45.3833C146.228 45.0244 146.133 44.743 145.943 44.5389C145.753 44.3348 145.482 44.2328 145.13 44.2328H144.37C144.018 44.2328 143.733 44.3278 143.515 44.5178C143.297 44.7078 143.188 44.9787 143.188 45.3306V47.9272C143.188 48.2791 143.297 48.55 143.515 48.74C143.733 48.93 144.018 49.025 144.37 49.025ZM150.218 49.3206H149.437C149.008 49.3206 148.663 49.1904 148.403 48.93C148.15 48.6696 148.023 48.3213 148.023 47.885V45.3728C148.023 44.9365 148.15 44.5881 148.403 44.3278C148.663 44.0674 149.008 43.9372 149.437 43.9372H151.612C151.668 43.9372 151.696 43.9689 151.696 44.0322V49.2256C151.696 49.2889 151.668 49.3206 151.612 49.3206H151.464C151.408 49.3206 151.38 49.2889 151.38 49.2256V48.7717H151.337C151.14 49.1376 150.767 49.3206 150.218 49.3206ZM151.38 47.9272V44.3172C151.38 44.2609 151.348 44.2328 151.285 44.2328H149.437C149.085 44.2328 148.815 44.3348 148.625 44.5389C148.435 44.743 148.34 45.0244 148.34 45.3833V47.8744C148.34 48.2333 148.435 48.5148 148.625 48.7189C148.815 48.923 149.085 49.025 149.437 49.025H150.197C150.549 49.025 150.834 48.93 151.052 48.74C151.27 48.55 151.38 48.2791 151.38 47.9272ZM153.618 49.3206H153.47C153.414 49.3206 153.386 49.2889 153.386 49.2256V44.0322C153.386 43.9689 153.414 43.9372 153.47 43.9372H153.618C153.674 43.9372 153.702 43.9689 153.702 44.0322V44.5072H153.744C153.822 44.3665 153.956 44.2363 154.146 44.1167C154.343 43.997 154.596 43.9372 154.906 43.9372H155.328C155.391 43.9372 155.423 43.9654 155.423 44.0217V44.1483C155.423 44.2046 155.391 44.2328 155.328 44.2328H154.895C154.536 44.2328 154.248 44.3454 154.029 44.5705C153.811 44.7957 153.702 45.1018 153.702 45.4889V49.2256C153.702 49.2889 153.674 49.3206 153.618 49.3206ZM158.671 49.3206H157.89C157.461 49.3206 157.116 49.1904 156.856 48.93C156.602 48.6696 156.476 48.3213 156.476 47.885V45.3728C156.476 44.9365 156.602 44.5881 156.856 44.3278C157.116 44.0674 157.461 43.9372 157.89 43.9372H160.064C160.121 43.9372 160.149 43.9689 160.149 44.0322V49.2256C160.149 49.2889 160.121 49.3206 160.064 49.3206H159.917C159.86 49.3206 159.832 49.2889 159.832 49.2256V48.7717H159.79C159.593 49.1376 159.22 49.3206 158.671 49.3206ZM159.832 47.9272V44.3172C159.832 44.2609 159.801 44.2328 159.737 44.2328H157.89C157.538 44.2328 157.267 44.3348 157.077 44.5389C156.887 44.743 156.792 45.0244 156.792 45.3833V47.8744C156.792 48.2333 156.887 48.5148 157.077 48.7189C157.267 48.923 157.538 49.025 157.89 49.025H158.65C159.002 49.025 159.287 48.93 159.505 48.74C159.723 48.55 159.832 48.2791 159.832 47.9272ZM168.27 49.3206H166.106C165.676 49.3206 165.332 49.1904 165.071 48.93C164.818 48.6696 164.691 48.3213 164.691 47.885V45.3728C164.691 44.9365 164.818 44.5881 165.071 44.3278C165.332 44.0674 165.676 43.9372 166.106 43.9372H167.035C167.464 43.9372 167.805 44.0674 168.058 44.3278C168.319 44.5881 168.449 44.9365 168.449 45.3728V46.7133C168.449 46.7837 168.417 46.8189 168.354 46.8189H165.103C165.04 46.8189 165.008 46.847 165.008 46.9033V47.8744C165.008 48.2333 165.103 48.5148 165.293 48.7189C165.483 48.923 165.754 49.025 166.106 49.025H168.27C168.333 49.025 168.365 49.0532 168.365 49.1095V49.2361C168.365 49.2924 168.333 49.3206 168.27 49.3206ZM165.103 46.5233H168.037C168.101 46.5233 168.132 46.4952 168.132 46.4389V45.3833C168.132 45.0244 168.037 44.743 167.847 44.5389C167.657 44.3348 167.386 44.2328 167.035 44.2328H166.106C165.754 44.2328 165.483 44.3348 165.293 44.5389C165.103 44.743 165.008 45.0244 165.008 45.3833V46.4389C165.008 46.4952 165.04 46.5233 165.103 46.5233ZM171.65 49.3206H169.855C169.792 49.3206 169.76 49.2924 169.76 49.2361V49.1095C169.76 49.0532 169.792 49.025 169.855 49.025H171.65C172.36 49.025 172.716 48.7435 172.716 48.1806V47.8639C172.716 47.6035 172.67 47.3924 172.578 47.2306C172.487 47.0687 172.322 46.9456 172.082 46.8611L170.689 46.3756C170.323 46.2489 170.066 46.0941 169.918 45.9111C169.778 45.7211 169.707 45.4572 169.707 45.1194C169.707 44.3313 170.137 43.9372 170.995 43.9372H172.695C172.758 43.9372 172.79 43.9654 172.79 44.0217V44.1483C172.79 44.2046 172.758 44.2328 172.695 44.2328H170.995C170.671 44.2328 170.429 44.3067 170.267 44.4544C170.112 44.6022 170.035 44.7711 170.035 44.9611V45.2461C170.035 45.4713 170.091 45.6472 170.203 45.7739C170.323 45.8935 170.506 45.9956 170.752 46.08L172.135 46.5761C172.508 46.6817 172.751 46.8541 172.863 47.0933C172.976 47.3326 173.032 47.6669 173.032 48.0961C173.032 48.5254 172.92 48.8385 172.695 49.0356C172.469 49.2256 172.121 49.3206 171.65 49.3206ZM174.771 44.2328H174.074C174.011 44.2328 173.979 44.2046 173.979 44.1483V44.0217C173.979 43.9654 174.011 43.9372 174.074 43.9372H174.771C174.834 43.9372 174.866 43.9091 174.866 43.8528V43.0294C174.866 42.9661 174.894 42.9344 174.95 42.9344H175.098C175.154 42.9344 175.183 42.9661 175.183 43.0294V43.8528C175.183 43.9091 175.214 43.9372 175.278 43.9372H176.639C176.703 43.9372 176.734 43.9654 176.734 44.0217V44.1483C176.734 44.2046 176.703 44.2328 176.639 44.2328H175.278C175.214 44.2328 175.183 44.2609 175.183 44.3172V47.9061C175.183 48.258 175.285 48.5324 175.489 48.7295C175.7 48.9265 175.985 49.025 176.344 49.025H176.745C176.808 49.025 176.84 49.0532 176.84 49.1095V49.2361C176.84 49.2924 176.808 49.3206 176.745 49.3206H176.344C175.907 49.3206 175.552 49.1939 175.278 48.9406C175.003 48.6872 174.866 48.3459 174.866 47.9167V44.3172C174.866 44.2609 174.834 44.2328 174.771 44.2328ZM180.246 49.3206H179.465C179.036 49.3206 178.691 49.1904 178.431 48.93C178.177 48.6696 178.051 48.3213 178.051 47.885V45.3728C178.051 44.9365 178.177 44.5881 178.431 44.3278C178.691 44.0674 179.036 43.9372 179.465 43.9372H181.64C181.696 43.9372 181.724 43.9689 181.724 44.0322V49.2256C181.724 49.2889 181.696 49.3206 181.64 49.3206H181.492C181.435 49.3206 181.407 49.2889 181.407 49.2256V48.7717H181.365C181.168 49.1376 180.795 49.3206 180.246 49.3206ZM181.407 47.9272V44.3172C181.407 44.2609 181.376 44.2328 181.312 44.2328H179.465C179.113 44.2328 178.842 44.3348 178.652 44.5389C178.462 44.743 178.367 45.0244 178.367 45.3833V47.8744C178.367 48.2333 178.462 48.5148 178.652 48.7189C178.842 48.923 179.113 49.025 179.465 49.025H180.225C180.577 49.025 180.862 48.93 181.08 48.74C181.298 48.55 181.407 48.2791 181.407 47.9272ZM183.825 49.025H185.672C186.024 49.025 186.295 48.923 186.485 48.7189C186.675 48.5148 186.77 48.2333 186.77 47.8744V45.2778C186.77 44.9189 186.675 44.6374 186.485 44.4333C186.295 44.2293 186.024 44.1272 185.672 44.1272H184.912C184.56 44.1272 184.275 44.2222 184.057 44.4122C183.839 44.6022 183.73 44.8731 183.73 45.225V48.9406C183.73 48.9969 183.762 49.025 183.825 49.025ZM183.413 49.2256V41.995C183.413 41.9317 183.442 41.9 183.498 41.9H183.646C183.702 41.9 183.73 41.9317 183.73 41.995V44.3805H183.772C183.969 44.0146 184.342 43.8317 184.891 43.8317H185.672C186.102 43.8317 186.443 43.9618 186.696 44.2222C186.957 44.4826 187.087 44.8309 187.087 45.2672V47.885C187.087 48.3213 186.957 48.6696 186.696 48.93C186.443 49.1904 186.102 49.3206 185.672 49.3206H183.498C183.442 49.3206 183.413 49.2889 183.413 49.2256ZM192.143 49.3206H189.979C189.55 49.3206 189.205 49.1904 188.945 48.93C188.692 48.6696 188.565 48.3213 188.565 47.885V45.3728C188.565 44.9365 188.692 44.5881 188.945 44.3278C189.205 44.0674 189.55 43.9372 189.979 43.9372H190.908C191.338 43.9372 191.679 44.0674 191.932 44.3278C192.193 44.5881 192.323 44.9365 192.323 45.3728V46.7133C192.323 46.7837 192.291 46.8189 192.228 46.8189H188.977C188.913 46.8189 188.882 46.847 188.882 46.9033V47.8744C188.882 48.2333 188.977 48.5148 189.167 48.7189C189.357 48.923 189.628 49.025 189.979 49.025H192.143C192.207 49.025 192.238 49.0532 192.238 49.1095V49.2361C192.238 49.2924 192.207 49.3206 192.143 49.3206ZM188.977 46.5233H191.911C191.974 46.5233 192.006 46.4952 192.006 46.4389V45.3833C192.006 45.0244 191.911 44.743 191.721 44.5389C191.531 44.3348 191.26 44.2328 190.908 44.2328H189.979C189.628 44.2328 189.357 44.3348 189.167 44.5389C188.977 44.743 188.882 45.0244 188.882 45.3833V46.4389C188.882 46.4952 188.913 46.5233 188.977 46.5233ZM194.141 49.3206H193.993C193.936 49.3206 193.908 49.2889 193.908 49.2256V41.995C193.908 41.9317 193.936 41.9 193.993 41.9H194.141C194.197 41.9 194.225 41.9317 194.225 41.995V49.2256C194.225 49.2889 194.197 49.3206 194.141 49.3206ZM199.442 49.3206H197.278C196.848 49.3206 196.504 49.1904 196.243 48.93C195.99 48.6696 195.863 48.3213 195.863 47.885V45.3728C195.863 44.9365 195.99 44.5881 196.243 44.3278C196.504 44.0674 196.848 43.9372 197.278 43.9372H198.207C198.636 43.9372 198.977 44.0674 199.23 44.3278C199.491 44.5881 199.621 44.9365 199.621 45.3728V46.7133C199.621 46.7837 199.589 46.8189 199.526 46.8189H196.275C196.212 46.8189 196.18 46.847 196.18 46.9033V47.8744C196.18 48.2333 196.275 48.5148 196.465 48.7189C196.655 48.923 196.926 49.025 197.278 49.025H199.442C199.505 49.025 199.537 49.0532 199.537 49.1095V49.2361C199.537 49.2924 199.505 49.3206 199.442 49.3206ZM196.275 46.5233H199.209C199.273 46.5233 199.304 46.4952 199.304 46.4389V45.3833C199.304 45.0244 199.209 44.743 199.019 44.5389C198.829 44.3348 198.558 44.2328 198.207 44.2328H197.278C196.926 44.2328 196.655 44.3348 196.465 44.5389C196.275 44.743 196.18 45.0244 196.18 45.3833V46.4389C196.18 46.4952 196.212 46.5233 196.275 46.5233ZM204.057 49.1095V49.2361C204.057 49.2924 204.025 49.3206 203.962 49.3206H202.463C202.033 49.3206 201.689 49.1904 201.428 48.93C201.175 48.6696 201.048 48.3213 201.048 47.885V45.3728C201.048 44.9365 201.175 44.5881 201.428 44.3278C201.689 44.0674 202.033 43.9372 202.463 43.9372H203.962C204.025 43.9372 204.057 43.9654 204.057 44.0217V44.1483C204.057 44.2046 204.025 44.2328 203.962 44.2328H202.463C202.111 44.2328 201.84 44.3348 201.65 44.5389C201.46 44.743 201.365 45.0244 201.365 45.3833V47.8744C201.365 48.2333 201.46 48.5148 201.65 48.7189C201.84 48.923 202.111 49.025 202.463 49.025H203.962C204.025 49.025 204.057 49.0532 204.057 49.1095ZM205.319 43.0611V42.0161C205.319 41.9528 205.348 41.9211 205.404 41.9211H205.552C205.608 41.9211 205.636 41.9528 205.636 42.0161V43.0611C205.636 43.1244 205.608 43.1561 205.552 43.1561H205.404C205.348 43.1561 205.319 43.1244 205.319 43.0611ZM205.319 49.2256V44.0322C205.319 43.9689 205.348 43.9372 205.404 43.9372H205.552C205.608 43.9372 205.636 43.9689 205.636 44.0322V49.2256C205.636 49.2889 205.608 49.3206 205.552 49.3206H205.404C205.348 49.3206 205.319 49.2889 205.319 49.2256ZM207.612 49.3206H207.464C207.408 49.3206 207.38 49.2889 207.38 49.2256V44.0322C207.38 43.9689 207.408 43.9372 207.464 43.9372H207.612C207.668 43.9372 207.697 43.9689 207.697 44.0322V44.4861H207.739C207.936 44.1202 208.309 43.9372 208.858 43.9372H209.322C209.941 43.9372 210.367 44.187 210.599 44.6867C210.698 44.4404 210.877 44.2539 211.138 44.1272C211.405 44.0005 211.673 43.9372 211.94 43.9372H212.362C212.791 43.9372 213.133 44.0674 213.386 44.3278C213.646 44.5881 213.777 44.9365 213.777 45.3728V49.2256C213.777 49.2889 213.748 49.3206 213.692 49.3206H213.544C213.488 49.3206 213.46 49.2889 213.46 49.2256V45.3833C213.46 45.0244 213.365 44.743 213.175 44.5389C212.985 44.3348 212.714 44.2328 212.362 44.2328H211.94C211.581 44.2328 211.289 44.3383 211.064 44.5494C210.846 44.7535 210.737 45.0315 210.737 45.3833V49.2256C210.737 49.2889 210.708 49.3206 210.652 49.3206H210.504C210.448 49.3206 210.42 49.2889 210.42 49.2256V45.3833C210.42 45.0244 210.325 44.743 210.135 44.5389C209.945 44.3348 209.674 44.2328 209.322 44.2328H208.879C208.527 44.2328 208.242 44.3278 208.024 44.5178C207.806 44.7078 207.697 44.9787 207.697 45.3306V49.2256C207.697 49.2889 207.668 49.3206 207.612 49.3206ZM218.883 49.3206H216.719C216.29 49.3206 215.945 49.1904 215.684 48.93C215.431 48.6696 215.304 48.3213 215.304 47.885V45.3728C215.304 44.9365 215.431 44.5881 215.684 44.3278C215.945 44.0674 216.29 43.9372 216.719 43.9372H217.648C218.077 43.9372 218.418 44.0674 218.672 44.3278C218.932 44.5881 219.062 44.9365 219.062 45.3728V46.7133C219.062 46.7837 219.031 46.8189 218.967 46.8189H215.716C215.653 46.8189 215.621 46.847 215.621 46.9033V47.8744C215.621 48.2333 215.716 48.5148 215.906 48.7189C216.096 48.923 216.367 49.025 216.719 49.025H218.883C218.946 49.025 218.978 49.0532 218.978 49.1095V49.2361C218.978 49.2924 218.946 49.3206 218.883 49.3206ZM215.716 46.5233H218.651C218.714 46.5233 218.746 46.4952 218.746 46.4389V45.3833C218.746 45.0244 218.651 44.743 218.461 44.5389C218.271 44.3348 218 44.2328 217.648 44.2328H216.719C216.367 44.2328 216.096 44.3348 215.906 44.5389C215.716 44.743 215.621 45.0244 215.621 45.3833V46.4389C215.621 46.4952 215.653 46.5233 215.716 46.5233ZM220.827 49.3206H220.679C220.623 49.3206 220.595 49.2889 220.595 49.2256V44.0322C220.595 43.9689 220.623 43.9372 220.679 43.9372H220.827C220.884 43.9372 220.912 43.9689 220.912 44.0322V44.4861H220.954C221.151 44.1202 221.524 43.9372 222.073 43.9372H222.854C223.283 43.9372 223.624 44.0674 223.878 44.3278C224.138 44.5881 224.268 44.9365 224.268 45.3728V49.2256C224.268 49.2889 224.24 49.3206 224.184 49.3206H224.036C223.98 49.3206 223.952 49.2889 223.952 49.2256V45.3833C223.952 45.0244 223.857 44.743 223.667 44.5389C223.477 44.3348 223.206 44.2328 222.854 44.2328H222.094C221.742 44.2328 221.457 44.3278 221.239 44.5178C221.021 44.7078 220.912 44.9787 220.912 45.3306V49.2256C220.912 49.2889 220.884 49.3206 220.827 49.3206ZM226.168 44.2328H225.471C225.408 44.2328 225.376 44.2046 225.376 44.1483V44.0217C225.376 43.9654 225.408 43.9372 225.471 43.9372H226.168C226.231 43.9372 226.263 43.9091 226.263 43.8528V43.0294C226.263 42.9661 226.291 42.9344 226.347 42.9344H226.495C226.551 42.9344 226.579 42.9661 226.579 43.0294V43.8528C226.579 43.9091 226.611 43.9372 226.674 43.9372H228.036C228.099 43.9372 228.131 43.9654 228.131 44.0217V44.1483C228.131 44.2046 228.099 44.2328 228.036 44.2328H226.674C226.611 44.2328 226.579 44.2609 226.579 44.3172V47.9061C226.579 48.258 226.681 48.5324 226.885 48.7295C227.097 48.9265 227.382 49.025 227.74 49.025H228.142C228.205 49.025 228.237 49.0532 228.237 49.1095V49.2361C228.237 49.2924 228.205 49.3206 228.142 49.3206H227.74C227.304 49.3206 226.949 49.1939 226.674 48.9406C226.4 48.6872 226.263 48.3459 226.263 47.9167V44.3172C226.263 44.2609 226.231 44.2328 226.168 44.2328ZM231.759 49.3206H230.862C230.432 49.3206 230.088 49.1904 229.827 48.93C229.574 48.6696 229.447 48.3213 229.447 47.885V45.3728C229.447 44.9365 229.574 44.5881 229.827 44.3278C230.088 44.0674 230.432 43.9372 230.862 43.9372H231.759C232.188 43.9372 232.529 44.0674 232.783 44.3278C233.043 44.5881 233.173 44.9365 233.173 45.3728V47.885C233.173 48.3213 233.043 48.6696 232.783 48.93C232.529 49.1904 232.188 49.3206 231.759 49.3206ZM230.862 49.025H231.759C232.111 49.025 232.382 48.923 232.572 48.7189C232.762 48.5148 232.857 48.2333 232.857 47.8744V45.3833C232.857 45.0244 232.762 44.743 232.572 44.5389C232.382 44.3348 232.111 44.2328 231.759 44.2328H230.862C230.51 44.2328 230.239 44.3348 230.049 44.5389C229.859 44.743 229.764 45.0244 229.764 45.3833V47.8744C229.764 48.2333 229.859 48.5148 230.049 48.7189C230.239 48.923 230.51 49.025 230.862 49.025ZM236.426 49.3206H234.632C234.568 49.3206 234.537 49.2924 234.537 49.2361V49.1095C234.537 49.0532 234.568 49.025 234.632 49.025H236.426C237.137 49.025 237.492 48.7435 237.492 48.1806V47.8639C237.492 47.6035 237.447 47.3924 237.355 47.2306C237.264 47.0687 237.098 46.9456 236.859 46.8611L235.466 46.3756C235.1 46.2489 234.843 46.0941 234.695 45.9111C234.554 45.7211 234.484 45.4572 234.484 45.1194C234.484 44.3313 234.913 43.9372 235.772 43.9372H237.471C237.535 43.9372 237.566 43.9654 237.566 44.0217V44.1483C237.566 44.2046 237.535 44.2328 237.471 44.2328H235.772C235.448 44.2328 235.205 44.3067 235.043 44.4544C234.889 44.6022 234.811 44.7711 234.811 44.9611V45.2461C234.811 45.4713 234.868 45.6472 234.98 45.7739C235.1 45.8935 235.283 45.9956 235.529 46.08L236.912 46.5761C237.285 46.6817 237.528 46.8541 237.64 47.0933C237.753 47.3326 237.809 47.6669 237.809 48.0961C237.809 48.5254 237.696 48.8385 237.471 49.0356C237.246 49.2256 236.898 49.3206 236.426 49.3206Z" fill="white"/>
<defs>
<filter id="filter0_d_5_84" x="0.983256" y="0.983256" width="62.2242" height="70.0335" filterUnits="userSpaceOnUse" color-interpolation-filters="sRGB">
<feFlood flood-opacity="0" result="BackgroundImageFix"/>
<feColorMatrix in="SourceAlpha" type="matrix" values="0 0 0 0 0 0 0 0 0 0 0 0 0 0 0 0 0 0 127 0" result="hardAlpha"/>
<feOffset/>
<feGaussianBlur stdDeviation="3.50837"/>
<feComposite in2="hardAlpha" operator="out"/>
<feColorMatrix type="matrix" values="0 0 0 0 0.117647 0 0 0 0 0.686275 0 0 0 0 0.345098 0 0 0 0.32 0"/>
<feBlend mode="normal" in2="BackgroundImageFix" result="effect1_dropShadow_5_84"/>
<feBlend mode="normal" in="SourceGraphic" in2="effect1_dropShadow_5_84" result="shape"/>
</filter>
<linearGradient id="paint0_linear_5_84" x1="62.7792" y1="14.3062" x2="26.5422" y2="65.0379" gradientUnits="userSpaceOnUse">
<stop stop-color="#18C55E"/>
<stop offset="1" stop-color="#0C6F34"/>
</linearGradient>
<linearGradient id="paint1_linear_5_84" x1="3.10566" y1="63.2496" x2="57.2258" y2="-0.753353" gradientUnits="userSpaceOnUse">
<stop stop-color="#18C55E"/>
<stop offset="1" stop-color="#07602B"/>
</linearGradient>
</defs>
</svg>
